<?xml version="1.0" encoding="UTF-8"?>
<svg version="1.1" xmlns="http://www.w3.org/2000/svg" width="196" height="193">
<path d="M0 0 C-0.57691253 3.13440333 -1.39132388 4.76285719 -3.66015625 6.98828125 C-4.47419922 7.79555664 -4.47419922 7.79555664 -5.3046875 8.61914062 C-5.88476562 9.17794922 -6.46484375 9.73675781 -7.0625 10.3125 C-7.65160156 10.89064453 -8.24070312 11.46878906 -8.84765625 12.06445312 C-12.57796223 15.7006834 -16.39570397 19.20892203 -20.36328125 22.5859375 C-22.69989523 24.60468275 -24.84678489 26.78858989 -27 29 C-30.16786603 32.17642875 -33.34717321 35.34124313 -36.52915955 38.50350952 C-38.88240122 40.84322969 -41.23286459 43.18573325 -43.58325195 45.52832031 C-44.81672845 46.75676222 -46.05110019 47.98430588 -47.28637695 49.2109375 C-49.08786942 51.00019124 -50.88601541 52.79275246 -52.68359375 54.5859375 C-53.22753281 55.12471527 -53.77147186 55.66349304 -54.33189392 56.21859741 C-58.09433233 59.98049345 -61.58999832 63.9166634 -65 68 C-64.505 68.99 -64.505 68.99 -64 70 C-63.31373535 69.30326172 -62.6274707 68.60652344 -61.92041016 67.88867188 C-59.37972873 65.31186648 -56.83249622 62.7416235 -54.28320312 60.17333984 C-53.17950702 59.05956877 -52.07761027 57.94401168 -50.97753906 56.82666016 C-49.39854926 55.22348763 -47.81325886 53.62679089 -46.2265625 52.03125 C-45.73378815 51.52815308 -45.24101379 51.02505615 -44.73330688 50.50671387 C-43.526244 49.29925487 -42.26721404 48.14417071 -41 47 C-40.34 47 -39.68 47 -39 47 C-38.731875 46.401875 -38.46375 45.80375 -38.1875 45.1875 C-37.00082594 43.00152146 -35.90400887 41.58667406 -34 40 C-33.34 40 -32.68 40 -32 40 C-31.67 39.01 -31.34 38.02 -31 37 C-30.34 37 -29.68 37 -29 37 C-28.76023437 36.44054687 -28.52046875 35.88109375 -28.2734375 35.3046875 C-23.38141989 26.451036 -14.38422425 20.23922462 -5 17 C4.87585234 14.79422587 13.10552899 16.48261052 21.75 21.5625 C27.47847147 25.61508886 31.78574296 32.02121741 33 39 C33.2209928 41.32741788 33.3571826 43.66349386 33.4375 46 C33.49808594 47.216875 33.55867188 48.43375 33.62109375 49.6875 C32.75236176 61.33519865 23.88685354 69.95738562 15.984375 77.63671875 C14.9203245 78.69209003 13.85754196 79.74874107 12.79595947 80.80659485 C10.02848307 83.55702331 7.24306731 86.28855166 4.45361328 89.0166626 C2.16955165 91.25678109 -0.1011384 93.51019682 -2.37134171 95.76434612 C-5.08183937 98.45528803 -7.79777664 101.14070307 -10.515625 103.82421875 C-11.03270271 104.33487066 -11.54978043 104.84552258 -12.08252716 105.37164879 C-13.53941319 106.80760862 -15.00055941 108.23924236 -16.46191406 109.6706543 C-17.29209045 110.48495407 -18.12226685 111.29925385 -18.9776001 112.13822937 C-22.89036343 115.74022117 -26.66755663 115.12863913 -31.7265625 115.09765625 C-33.02078629 115.09553383 -33.02078629 115.09553383 -34.34115601 115.09336853 C-37.1024723 115.08776188 -39.86370812 115.07520827 -42.625 115.0625 C-44.4947905 115.05748586 -46.36458226 115.0529228 -48.234375 115.04882812 C-52.82294777 115.03779029 -57.41146023 115.0205212 -62 115 C-60.34718267 110.7080237 -57.10931729 107.85788379 -53.89794922 104.70263672 C-53.27342865 104.08103668 -52.64890808 103.45943665 -52.00546265 102.81900024 C-50.65118856 101.4723279 -49.29460912 100.12797084 -47.93600082 98.78567123 C-45.78880283 96.66399162 -43.64790766 94.53613335 -41.50857544 92.40652466 C-36.96960378 87.89040716 -32.4228546 83.38216969 -27.875 78.875 C-22.59901414 73.64613353 -17.32622263 68.41413044 -12.06177139 63.17364883 C-9.94737489 61.07226603 -7.82706781 58.97697044 -5.70651245 56.88180542 C-4.41846912 55.60102303 -3.13070345 54.31996133 -1.84326172 53.03857422 C-1.24795654 52.45360168 -0.65265137 51.86862915 -0.03930664 51.26593018 C1.34559698 49.8813911 2.6787492 48.44540749 4 47 C4 46.34 4 45.68 4 45 C0.64099814 46.45932223 -1.55928291 48.31114529 -4.13842773 50.89550781 C-4.94283798 51.69684143 -5.74724823 52.49817505 -6.57603455 53.3237915 C-7.43652908 54.19147156 -8.29702362 55.05915161 -9.18359375 55.953125 C-10.07611343 56.84610291 -10.96863312 57.73908081 -11.88819885 58.65911865 C-13.77594511 60.5498862 -15.66167665 62.44242426 -17.54418945 64.33837891 C-19.94414551 66.75526319 -22.35056942 69.16557466 -24.7593832 71.57362747 C-27.07025331 73.88483693 -29.37685505 76.20029318 -31.68359375 78.515625 C-32.54206406 79.37520813 -33.40053436 80.23479126 -34.28501892 81.12042236 C-39.27731631 86.15114409 -39.27731631 86.15114409 -43.93432617 91.48779297 C-48.24016284 96.72441503 -54.11186894 98.62182867 -60.69921875 99.484375 C-69.02879019 99.78757477 -75.07812492 98.66672557 -82 94 C-83.0725 93.319375 -84.145 92.63875 -85.25 91.9375 C-91.10335985 86.51896117 -94.25727158 78.90857081 -94.70166016 71.03051758 C-95.03329685 57.10010149 -87.29477499 47.24956359 -78.14453125 37.36328125 C-77.66907867 36.84514044 -77.1936261 36.32699963 -76.70376587 35.79315758 C-73.12962054 31.91113437 -69.4860212 28.10037527 -65.8125 24.3125 C-65.2799548 23.75992523 -64.74740959 23.20735046 -64.19872665 22.63803101 C-40.28730472 -2.08394474 -40.28730472 -2.08394474 -24.36401367 -2.70629883 C-18.80614022 -2.57194979 -13.4324977 -1.92772367 -8.01879883 -0.66992188 C-5.22523286 -0.04998293 -2.84666721 0.12464736 0 0 Z " fill="#F2F2F2" transform="translate(130,37)"/>
<path d="M0 0 C-0.5805321 3.30118794 -1.54868099 4.91134076 -3.94140625 7.234375 C-4.81635742 8.09482422 -4.81635742 8.09482422 -5.70898438 8.97265625 C-6.32064453 9.55917969 -6.93230469 10.14570312 -7.5625 10.75 C-8.48579102 11.65298828 -8.48579102 11.65298828 -9.42773438 12.57421875 C-10.94514813 14.05634381 -12.47170596 15.5290967 -14 17 C-14.66 16.67 -15.32 16.34 -16 16 C-11.71 11.71 -7.42 7.42 -3 3 C-14.93899308 -0.25608902 -27.32757311 -2.29432332 -39 3 C-48.76203234 9.40237558 -56.89221874 17.9275088 -64.9375 26.3125 C-65.47048706 26.8640979 -66.00347412 27.4156958 -66.5526123 27.98400879 C-70.1827773 31.74828706 -73.75191031 35.56333597 -77.27734375 39.42578125 C-77.73961805 39.92824183 -78.20189236 40.4307024 -78.67817497 40.94838905 C-86.72009765 49.76681284 -93.03893361 58.57529576 -92.4921875 70.94140625 C-91.24745141 78.67655197 -87.67328681 85.76895092 -83 92 C-86.83399908 90.52794396 -88.17752164 88.58125389 -90.1875 85.0625 C-90.69667969 84.18722656 -91.20585938 83.31195313 -91.73046875 82.41015625 C-93.97708269 78.14504609 -94.30831619 74.28884564 -94.4375 69.5625 C-94.48326172 68.91345703 -94.52902344 68.26441406 -94.57617188 67.59570312 C-94.84328811 55.52901778 -85.856435 45.69552463 -78.14453125 37.36328125 C-77.66907867 36.84514044 -77.1936261 36.32699963 -76.70376587 35.79315758 C-73.12962054 31.91113437 -69.4860212 28.10037527 -65.8125 24.3125 C-65.2799548 23.75992523 -64.74740959 23.20735046 -64.19872665 22.63803101 C-40.28730472 -2.08394474 -40.28730472 -2.08394474 -24.36401367 -2.70629883 C-18.80614022 -2.57194979 -13.4324977 -1.92772367 -8.01879883 -0.66992188 C-5.22523286 -0.04998293 -2.84666721 0.12464736 0 0 Z " fill="#1D1D1D" transform="translate(130,37)"/>
<path d="M0 0 C1.65 0.33 3.3 0.66 5 1 C4.67165377 6.21862449 1.67372351 8.8616151 -1.88085938 12.3190918 C-2.49387405 12.93108429 -3.10688873 13.54307678 -3.73847961 14.1736145 C-5.76438172 16.19164019 -7.80396195 18.19523812 -9.84375 20.19921875 C-11.25334232 21.59880918 -12.66198063 22.99936104 -14.06970215 24.40083313 C-17.77614664 28.08634454 -21.49400138 31.76012233 -25.21478271 35.43115234 C-31.17371998 41.3148091 -37.11408224 47.21723609 -43.05659485 53.11747169 C-45.1370381 55.18017071 -47.22161161 57.23861926 -49.30700684 59.29631042 C-50.57776633 60.55385548 -51.84848011 61.81144673 -53.11914062 63.0690918 C-53.70307083 63.64314255 -54.28700104 64.2171933 -54.8886261 64.80863953 C-57.80784072 67.62687458 -57.80784072 67.62687458 -60 71 C-48.12 71 -36.24 71 -24 71 C-24 71.33 -24 71.66 -24 72 C-36.87 72 -49.74 72 -63 72 C-60.86993901 67.73987801 -58.23883003 64.98513321 -54.89794922 61.70263672 C-54.27342865 61.08103668 -53.64890808 60.45943665 -53.00546265 59.81900024 C-51.65118856 58.4723279 -50.29460912 57.12797084 -48.93600082 55.78567123 C-46.78880283 53.66399162 -44.64790766 51.53613335 -42.50857544 49.40652466 C-37.96960378 44.89040716 -33.4228546 40.38216969 -28.875 35.875 C-23.59901414 30.64613353 -18.32622263 25.41413044 -13.06177139 20.17364883 C-10.94737489 18.07226603 -8.82706781 15.97697044 -6.70651245 13.88180542 C-5.41846912 12.60102303 -4.13070345 11.31996133 -2.84326172 10.03857422 C-2.24795654 9.45360168 -1.65265137 8.86862915 -1.03930664 8.26593018 C0.34559698 6.8813911 1.6787492 5.44540749 3 4 C3 3.34 3 2.68 3 2 C2.01 2 1.02 2 0 2 C0 1.34 0 0.68 0 0 Z " fill="#353535" transform="translate(131,80)"/>
<path d="M0 0 C1.77425406 2.0968457 3.48184058 4.19129977 5.0625 6.4375 C4.7325 7.0975 4.4025 7.7575 4.0625 8.4375 C3.66160156 7.91800781 3.26070312 7.39851563 2.84765625 6.86328125 C-2.17660848 0.69972746 -7.93111624 -4.06036421 -15.9375 -5.5625 C-25.32134892 -6.40181786 -33.06177549 -5.43993077 -40.5703125 0.53125 C-43.0821414 2.78064901 -45.51221538 5.09555849 -47.9375 7.4375 C-49.90964518 9.14250201 -51.91731006 10.78945031 -53.9375 12.4375 C-50.08606177 3.45081079 -41.37823595 -2.60869026 -32.75390625 -6.5078125 C-21.07387396 -10.8817497 -9.29817126 -8.11117067 0 0 Z " fill="#383838" transform="translate(154.9375,61.5625)"/>
<path d="M0 0 C0 3 0 3 -1.82006836 5.14477539 C-2.65159424 5.95422607 -3.48312012 6.76367676 -4.33984375 7.59765625 C-5.23767578 8.48130859 -6.13550781 9.36496094 -7.06054688 10.27539062 C-8.01913479 11.20483615 -8.97812396 12.133868 -9.9375 13.0625 C-11.80431036 14.88316946 -13.66618768 16.7086884 -15.52734375 18.53515625 C-16.35999756 19.343479 -17.19265137 20.15180176 -18.05053711 20.98461914 C-20.0501116 22.84987837 -20.0501116 22.84987837 -21 25 C-9.12 25 2.76 25 15 25 C15 25.33 15 25.66 15 26 C2.13 26 -10.74 26 -24 26 C-21.99989392 21.99978784 -20.14151829 19.91000659 -16.9921875 16.796875 C-16.50670441 16.3142218 -16.02122131 15.8315686 -15.52102661 15.33428955 C-13.97700134 13.80141438 -12.42615176 12.27565996 -10.875 10.75 C-9.82375991 9.70879639 -8.77297343 8.66713459 -7.72265625 7.625 C-5.15366996 5.07800536 -2.57851839 2.53734823 0 0 Z " fill="#1F1F1F" transform="translate(92,126)"/>
<path d="M0 0 C-0.5805321 3.30118794 -1.54868099 4.91134076 -3.94140625 7.234375 C-4.52470703 7.80800781 -5.10800781 8.38164063 -5.70898438 8.97265625 C-6.32064453 9.55917969 -6.93230469 10.14570312 -7.5625 10.75 C-8.17802734 11.35199219 -8.79355469 11.95398438 -9.42773438 12.57421875 C-10.94514813 14.05634381 -12.47170596 15.5290967 -14 17 C-14.66 16.67 -15.32 16.34 -16 16 C-11.71 11.71 -7.42 7.42 -3 3 C-14.55 2.67 -26.1 2.34 -38 2 C-38 1.67 -38 1.34 -38 1 C-33.39187551 0.85660392 -28.7837213 0.71421847 -24.17553711 0.57275391 C-22.60912236 0.52452665 -21.04271596 0.47602721 -19.47631836 0.42724609 C-17.21991096 0.35702446 -14.96347495 0.28779396 -12.70703125 0.21875 C-11.66298882 0.18593933 -11.66298882 0.18593933 -10.59785461 0.15246582 C-7.06378443 0.04531153 -3.53571155 -0.02395063 0 0 Z " fill="#4A4A4A" transform="translate(130,37)"/>
<path d="M0 0 C0.66 0 1.32 0 2 0 C0.125 5.75 0.125 5.75 -1 8 C-2.29518292 19.36060447 1.2156364 28.95418187 8 38 C4.16600092 36.52794396 2.82247836 34.58125389 0.8125 31.0625 C0.30332031 30.18722656 -0.20585938 29.31195313 -0.73046875 28.41015625 C-3.04820899 24.01001555 -3.21449424 20.11428953 -3.25 15.25 C-3.270625 14.5590625 -3.29125 13.868125 -3.3125 13.15625 C-3.35088173 8.05147958 -2.27330153 4.57053254 0 0 Z " fill="#424242" transform="translate(39,91)"/>
<path d="M0 0 C4.43379675 2.21689838 6.46636932 4.77728219 9 9 C8.67 9.66 8.34 10.32 8 11 C6.66072279 9.54712339 5.32873153 8.08752741 4 6.625 C3.2575 5.81289062 2.515 5.00078125 1.75 4.1640625 C0 2 0 2 0 0 Z " fill="#222222" transform="translate(151,59)"/>
</svg>
